<svg width="170" height="51" viewBox="0 0 170 51" fill="none" xmlns="http://www.w3.org/2000/svg">
<path d="M168.832 44.4416C168.832 47.1049 166.681 49.2765 163.997 49.2765H5.9411C3.2778 49.2765 1.1062 47.1254 1.1062 44.4416V5.96723C1.1062 3.30393 3.2778 1.13232 5.9411 1.13232H163.997C166.661 1.13232 168.832 3.30393 168.832 5.96723V44.4416Z" fill="white"/>
<path d="M164.018 50.3828H5.96169C2.68379 50.3828 0 47.7195 0 44.4416V5.9673C0 2.6894 2.6633 0.00561523 5.96169 0.00561523H164.018C167.296 0.00561523 169.98 2.66891 169.98 5.9673V44.4416C169.959 47.7195 167.296 50.3828 164.018 50.3828Z" fill="#A6A6A6"/>
<path d="M168.832 44.4416C168.832 47.1049 166.681 49.2765 163.997 49.2765H5.9411C3.2778 49.2765 1.1062 47.1254 1.1062 44.4416V5.96723C1.1062 3.30393 3.2778 1.13232 5.9411 1.13232H163.997C166.661 1.13232 168.832 3.30393 168.832 5.96723V44.4416Z" fill="black"/>
<path d="M37.9418 24.9381C37.9008 20.8817 41.2607 18.8945 41.4246 18.8125C39.5193 16.0468 36.5692 15.6576 35.5243 15.6371C33.0454 15.3708 30.6485 17.1121 29.3783 17.1121C28.0876 17.1121 26.1414 15.6576 24.0517 15.6985C21.3474 15.7395 18.8275 17.2965 17.4549 19.7345C14.6072 24.6718 16.7379 31.9446 19.4626 35.9396C20.8353 37.9063 22.4332 40.0779 24.5229 39.996C26.5716 39.914 27.3296 38.6848 29.8085 38.6848C32.2464 38.6848 32.984 39.996 35.1146 39.9345C37.3067 39.8935 38.6998 37.9678 40.011 36.001C41.5885 33.768 42.2235 31.5554 42.244 31.4325C42.2031 31.412 37.9828 29.7935 37.9418 24.9381Z" fill="white"/>
<path d="M33.9056 12.9943C35.0119 11.6216 35.7699 9.73684 35.5446 7.85205C33.9466 7.91351 31.9594 8.95834 30.8121 10.3105C29.7878 11.4987 28.8863 13.445 29.1322 15.2683C30.935 15.3912 32.7584 14.3464 33.9056 12.9943Z" fill="white"/>
<path d="M164.018 0.00561523H79.366L112.534 50.3828H164.038C167.316 50.3828 170 47.7195 170 44.4416V5.9673C169.959 2.6894 167.296 0.00561523 164.018 0.00561523Z" fill="url(#paint0_linear)"/>
<path d="M67.6066 39.6892H64.7384L63.1814 34.7723H57.7114L56.2159 39.6892H53.4297L58.8177 22.9309H62.1571L67.6066 39.6892ZM62.6898 32.7031L61.2762 28.319C61.1328 27.8682 60.8459 26.8234 60.4362 25.164H60.3952C60.2313 25.881 59.965 26.9258 59.5962 28.319L58.2031 32.7031H62.6898Z" fill="white"/>
<path d="M81.4559 33.5016C81.4559 35.5502 80.9027 37.1892 79.776 38.3774C78.7721 39.4427 77.5224 39.9754 76.0473 39.9754C74.4494 39.9754 73.3021 39.4018 72.6056 38.2545V44.6054H69.9218V31.5963C69.9218 30.3056 69.8808 28.974 69.8193 27.6218H72.1753L72.3187 29.5476H72.3597C73.2611 28.1135 74.6133 27.376 76.4366 27.376C77.8707 27.376 79.0589 27.9291 80.0013 29.0764C80.9642 30.1827 81.4559 31.6577 81.4559 33.5016ZM78.7106 33.604C78.7106 32.4362 78.4443 31.4529 77.9117 30.6948C77.338 29.8959 76.5595 29.5066 75.5761 29.5066C74.9206 29.5066 74.306 29.732 73.7733 30.1622C73.2406 30.6129 72.8719 31.1865 72.708 31.8831C72.626 32.2109 72.5851 32.4772 72.5851 32.7026V34.7103C72.5851 35.5912 72.8514 36.3287 73.3841 36.9433C73.9167 37.558 74.6337 37.8448 75.4942 37.8448C76.4981 37.8448 77.297 37.4555 77.8502 36.677C78.4238 35.8985 78.7106 34.8742 78.7106 33.604Z" fill="white"/>
<path d="M95.3458 33.5016C95.3458 35.5502 94.7926 37.1892 93.6658 38.3774C92.662 39.4427 91.4123 39.9754 89.9372 39.9754C88.3393 39.9754 87.192 39.4018 86.4954 38.2545V44.6054H83.8117V31.5963C83.8117 30.3056 83.7707 28.974 83.7092 27.6218H86.0652L86.2086 29.5476H86.2496C87.151 28.1135 88.5032 27.376 90.3265 27.376C91.7606 27.376 92.9488 27.9291 93.8912 29.0764C94.8746 30.1827 95.3458 31.6577 95.3458 33.5016ZM92.621 33.604C92.621 32.4362 92.3547 31.4529 91.822 30.6948C91.2484 29.8959 90.4699 29.5066 89.4865 29.5066C88.8309 29.5066 88.2163 29.732 87.6837 30.1622C87.151 30.6129 86.8027 31.1865 86.6184 31.8831C86.5364 32.2109 86.4954 32.4772 86.4954 32.7026V34.7103C86.4954 35.5912 86.7618 36.3287 87.2944 36.9433C87.8271 37.5375 88.5441 37.8448 89.4046 37.8448C90.4084 37.8448 91.2074 37.4555 91.7606 36.677C92.3342 35.8985 92.621 34.8742 92.621 33.604Z" fill="white"/>
<path d="M110.895 34.9972C110.895 36.4313 110.403 37.5786 109.4 38.48C108.314 39.4634 106.777 39.955 104.831 39.955C103.028 39.955 101.574 39.6068 100.488 38.9102L101.102 36.6771C102.27 37.3737 103.581 37.722 104.974 37.722C105.978 37.722 106.777 37.4966 107.33 37.0459C107.884 36.5952 108.17 35.9806 108.17 35.2226C108.17 34.5465 107.945 33.9729 107.474 33.5017C107.003 33.0305 106.245 32.6003 105.159 32.211C102.229 31.1252 100.754 29.5067 100.754 27.4171C100.754 26.0445 101.266 24.9177 102.311 24.0367C103.356 23.1558 104.729 22.7256 106.429 22.7256C107.945 22.7256 109.236 22.9919 110.24 23.5246L109.563 25.7167C108.621 25.2045 107.535 24.9382 106.347 24.9382C105.405 24.9382 104.647 25.1635 104.134 25.6347C103.684 26.0445 103.458 26.5566 103.458 27.1507C103.458 27.8063 103.725 28.3595 104.237 28.7897C104.688 29.179 105.487 29.6092 106.675 30.0804C108.109 30.654 109.174 31.3301 109.85 32.1086C110.567 32.8666 110.895 33.8295 110.895 34.9972Z" fill="white"/>
<path d="M119.807 29.6296H116.837V35.4889C116.837 36.9844 117.349 37.722 118.394 37.722C118.865 37.722 119.275 37.681 119.582 37.599L119.664 39.6477C119.131 39.8526 118.435 39.955 117.574 39.955C116.509 39.955 115.69 39.6272 115.095 38.9921C114.501 38.3366 114.194 37.2508 114.194 35.7347V29.6296H112.432V27.6219H114.194V25.4093L116.837 24.6104V27.6219H119.807C119.807 27.6014 119.807 29.6296 119.807 29.6296Z" fill="white"/>
<path d="M133.144 33.563C133.144 35.4273 132.612 36.9433 131.546 38.1316C130.44 39.3608 128.965 39.9754 127.121 39.9754C125.339 39.9754 123.925 39.3813 122.88 38.2135C121.836 37.0458 121.303 35.5502 121.303 33.7679C121.303 31.9036 121.856 30.3671 122.942 29.1583C124.028 27.9701 125.503 27.376 127.326 27.376C129.108 27.376 130.522 27.9701 131.608 29.1378C132.612 30.2646 133.144 31.7397 133.144 33.563ZM130.358 33.6245C130.358 32.5182 130.112 31.5758 129.641 30.7768C129.088 29.8139 128.269 29.3427 127.224 29.3427C126.138 29.3427 125.318 29.8139 124.765 30.7768C124.294 31.5758 124.048 32.5387 124.048 33.6859C124.048 34.7922 124.294 35.7551 124.765 36.5336C125.339 37.4965 126.158 37.9677 127.203 37.9677C128.228 37.9677 129.027 37.476 129.621 36.5131C130.092 35.6732 130.358 34.7308 130.358 33.6245Z" fill="white"/>
<path d="M141.872 29.978C141.605 29.9371 141.318 29.8961 141.032 29.8961C140.089 29.8961 139.352 30.2444 138.839 30.9614C138.389 31.5965 138.163 32.3955 138.163 33.3584V39.7093H135.48V31.4326C135.48 30.0395 135.459 28.7693 135.398 27.622H137.733L137.836 29.9371H137.918C138.204 29.1381 138.655 28.503 139.27 28.0113C139.864 27.5811 140.519 27.3557 141.216 27.3557C141.462 27.3557 141.687 27.3762 141.892 27.3967L141.872 29.978Z" fill="white"/>
<path d="M153.877 33.0715C153.877 33.5427 153.836 33.9524 153.775 34.2802H145.723C145.744 35.4685 146.153 36.3904 146.891 37.0255C147.567 37.5786 148.448 37.8654 149.534 37.8654C150.722 37.8654 151.808 37.681 152.791 37.2918L153.221 39.1561C152.074 39.6478 150.722 39.8936 149.165 39.8936C147.301 39.8936 145.826 39.3405 144.74 38.2342C143.675 37.1279 143.142 35.6528 143.142 33.7885C143.142 31.9652 143.634 30.4492 144.637 29.2404C145.682 27.9498 147.096 27.2942 148.858 27.2942C150.599 27.2942 151.91 27.9498 152.812 29.2404C153.529 30.3058 153.877 31.5759 153.877 33.0715ZM151.316 32.3749C151.337 31.5759 151.152 30.8999 150.804 30.3058C150.333 29.5477 149.616 29.179 148.673 29.179C147.792 29.179 147.075 29.5477 146.543 30.2648C146.092 30.8384 145.826 31.535 145.744 32.3544L151.316 32.3749Z" fill="white"/>
<path d="M61.3994 16.9279H59.9858L59.2073 14.5104H56.5235L55.786 16.9279H54.4133L57.0561 8.69214H58.6951L61.3994 16.9279ZM59.0024 13.5066L58.3058 11.3554C58.2239 11.1301 58.101 10.6179 57.8961 9.79843H57.8756C57.7937 10.1467 57.6707 10.6589 57.4864 11.3554L56.8103 13.5066H59.0024Z" fill="white"/>
<path d="M68.0369 10.9866L65.7833 16.9278H64.4927L62.321 10.9866H63.7346L64.759 14.1211C64.9229 14.6537 65.0663 15.1454 65.1892 15.6166H65.2302C65.3326 15.1864 65.476 14.6947 65.6604 14.1211L66.6643 10.9866C66.6438 10.9866 68.0369 10.9866 68.0369 10.9866Z" fill="white"/>
<path d="M72.8309 16.9277L72.7285 16.2516H72.6875C72.2778 16.8048 71.7041 17.0711 70.9461 17.0711C69.8808 17.0711 69.1228 16.3336 69.1228 15.3297C69.1228 13.8547 70.393 13.0966 72.5851 13.0966V12.9942C72.5851 12.2157 72.1753 11.8265 71.3559 11.8265C70.7618 11.8265 70.2496 11.9699 69.7989 12.2772L69.5325 11.4167C70.0857 11.0684 70.7618 10.9045 71.5812 10.9045C73.1382 10.9045 73.9167 11.724 73.9167 13.363V15.5551C73.9167 16.1492 73.9372 16.6204 73.9987 16.9687L72.8309 16.9277ZM72.6465 13.9776C71.1715 13.9776 70.4544 14.3258 70.4544 15.1658C70.4544 15.7804 70.8437 16.0877 71.3559 16.0877C72.0319 16.0877 72.6465 15.5755 72.6465 14.879C72.6465 14.8995 72.6465 13.9776 72.6465 13.9776Z" fill="white"/>
<path d="M76.8669 10.0033C76.4367 10.0033 76.0884 9.65499 76.0884 9.20428C76.0884 8.75357 76.4367 8.42578 76.8874 8.42578C77.3381 8.42578 77.7068 8.75357 77.6864 9.20428C77.7068 9.69597 77.3586 10.0033 76.8669 10.0033ZM77.5429 16.9278H76.2318V10.9866H77.5429V16.9278Z" fill="white"/>
<path d="M81.2098 16.9279H79.8987V8.26196H81.2098V16.9279Z" fill="white"/>
<path d="M86.8234 16.9277L86.7209 16.2516H86.6799C86.2702 16.8048 85.6966 17.0711 84.9386 17.0711C83.8732 17.0711 83.1152 16.3336 83.1152 15.3297C83.1152 13.8547 84.3854 13.0966 86.5775 13.0966V12.9942C86.5775 12.2157 86.1678 11.8265 85.3483 11.8265C84.7542 11.8265 84.242 11.9699 83.7913 12.2772L83.525 11.4167C84.0781 11.0684 84.7542 10.9045 85.5737 10.9045C87.1307 10.9045 87.9092 11.724 87.9092 13.363V15.5551C87.9092 16.1492 87.9297 16.6204 87.9911 16.9687H86.8234V16.9277ZM86.639 13.9776C85.1639 13.9776 84.4469 14.3258 84.4469 15.1658C84.4469 15.7804 84.8361 16.0877 85.3483 16.0877C86.0244 16.0877 86.639 15.5755 86.639 14.879V13.9776Z" fill="white"/>
<path d="M93.2769 17.0711C92.4369 17.0711 91.8018 16.7228 91.4126 16.0263H91.3921L91.3101 16.9482H90.1833C90.2243 16.477 90.2243 15.9238 90.2243 15.3502V8.28223H91.556V11.8674H91.5765C91.9657 11.2118 92.6008 10.8841 93.4612 10.8841C94.8953 10.8841 95.8992 12.1133 95.8992 13.8956C95.8992 15.719 94.7929 17.0711 93.2769 17.0711ZM93.0105 11.9084C92.2525 11.9084 91.556 12.564 91.556 13.4859V14.5307C91.556 15.3502 92.1706 16.0263 92.9901 16.0263C93.9734 16.0263 94.5675 15.2273 94.5675 13.9366C94.5675 12.7279 93.9529 11.9084 93.0105 11.9084Z" fill="white"/>
<path d="M99.1769 16.9279H97.8657V8.26196H99.1769V16.9279Z" fill="white"/>
<path d="M106.368 14.2848H102.414C102.434 15.4116 103.192 16.0467 104.278 16.0467C104.872 16.0467 105.405 15.9443 105.876 15.7599L106.081 16.6818C105.528 16.9276 104.852 17.0506 104.094 17.0506C102.229 17.0506 101.144 15.8828 101.144 14.0595C101.144 12.2361 102.27 10.8635 103.95 10.8635C105.466 10.8635 106.429 11.9903 106.429 13.6907C106.409 13.9161 106.409 14.1209 106.368 14.2848ZM105.159 13.3424C105.159 12.4205 104.688 11.7854 103.848 11.7854C103.09 11.7854 102.496 12.441 102.414 13.3424H105.159Z" fill="white"/>
<path d="M114.378 17.0713C112.637 17.0713 111.51 15.7806 111.51 14.0188C111.51 12.175 112.657 10.8843 114.48 10.8843C116.181 10.8843 117.349 12.1135 117.349 13.9368C117.328 15.7806 116.14 17.0713 114.378 17.0713ZM114.419 11.8267C113.456 11.8267 112.862 12.7281 112.862 13.9573C112.862 15.1865 113.477 16.0675 114.419 16.0675C115.361 16.0675 115.976 15.1046 115.976 13.9368C115.955 12.7486 115.341 11.8267 114.419 11.8267Z" fill="white"/>
<path d="M124.417 16.9276H123.106V13.5063C123.106 12.4615 122.696 11.9288 121.917 11.9288C121.139 11.9288 120.586 12.6049 120.586 13.3834V16.9276H119.275V12.6869C119.275 12.1542 119.254 11.6011 119.234 10.9864H120.401L120.463 11.9084H120.504C120.852 11.2733 121.59 10.8635 122.389 10.8635C123.638 10.8635 124.458 11.8264 124.458 13.3629L124.417 16.9276Z" fill="white"/>
<path d="M133.062 11.9906H131.608V14.8793C131.608 15.6168 131.854 15.9856 132.386 15.9856C132.612 15.9856 132.816 15.9651 132.98 15.9241L133.021 16.928C132.755 17.0304 132.427 17.0714 131.997 17.0714C130.952 17.0714 130.337 16.4977 130.337 15.0022V12.0111H129.477V10.9868H130.337V9.90097L131.628 9.51172V10.9868H133.083V11.9906H133.062Z" fill="white"/>
<path d="M140.048 16.9279H138.717V13.5476C138.717 12.4823 138.307 11.9496 137.528 11.9496C136.852 11.9496 136.217 12.4208 136.217 13.3632V16.9279H134.885V8.26196H136.217V11.8267H136.238C136.647 11.1711 137.262 10.8638 138.02 10.8638C139.27 10.8638 140.048 11.8472 140.048 13.4042V16.9279Z" fill="white"/>
<path d="M146.809 14.2848H142.835C142.855 15.4116 143.613 16.0467 144.699 16.0467C145.293 16.0467 145.826 15.9443 146.297 15.7599L146.502 16.6818C145.949 16.9276 145.273 17.0506 144.515 17.0506C142.65 17.0506 141.564 15.8828 141.564 14.0595C141.564 12.2361 142.691 10.8635 144.371 10.8635C145.887 10.8635 146.85 11.9903 146.85 13.6907C146.85 13.9161 146.83 14.1209 146.809 14.2848ZM145.6 13.3424C145.6 12.4205 145.129 11.7854 144.289 11.7854C143.531 11.7854 142.937 12.441 142.855 13.3424H145.6Z" fill="white"/>
<defs>
<linearGradient id="paint0_linear" x1="124.657" y1="50.5231" x2="124.657" y2="5.11414" gradientUnits="userSpaceOnUse">
<stop stop-color="#1A1A1A" stop-opacity="0.1"/>
<stop offset="0.1235" stop-color="#212121" stop-opacity="0.1506"/>
<stop offset="0.3085" stop-color="#353535" stop-opacity="0.2265"/>
<stop offset="0.5321" stop-color="#575757" stop-opacity="0.3181"/>
<stop offset="0.7834" stop-color="#858585" stop-opacity="0.4212"/>
<stop offset="1" stop-color="#B3B3B3" stop-opacity="0.51"/>
</linearGradient>
</defs>
</svg>
