<svg width="170" height="50" viewBox="0 0 170 50" fill="none" xmlns="http://www.w3.org/2000/svg">
<path d="M163.671 49.7798H6.2891C2.82368 49.7798 0 46.989 0 43.5639V6.24292C0 2.81782 2.82368 0.0269966 6.2891 0.0269966H163.671C167.136 0.0269966 169.96 2.81782 169.96 6.24292V43.5639C169.96 46.989 167.11 49.7798 163.671 49.7798Z" fill="black"/>
<path d="M163.671 0.989372C166.597 0.989372 168.959 3.32351 168.959 6.21582V43.5368C168.959 46.4291 166.597 48.7632 163.671 48.7632H6.2891C3.36274 48.7632 1.00113 46.4291 1.00113 43.5368V6.21582C1.00113 3.32351 3.36274 0.989372 6.2891 0.989372H163.671ZM163.671 -0.000102997H6.2891C2.82368 -0.000102997 0 2.79072 0 6.21582V43.5368C0 46.9619 2.82368 49.7527 6.2891 49.7527H163.671C167.136 49.7527 169.96 46.9619 169.96 43.5368V6.21582C169.96 2.79072 167.11 -0.000102997 163.671 -0.000102997Z" fill="#A6A6A6"/>
<path d="M59.6823 12.7634C59.6823 13.8036 59.3742 14.6408 58.7582 15.2498C58.0394 15.9855 57.1153 16.3661 55.9858 16.3661C54.9077 16.3661 53.9579 15.9855 53.2135 15.2498C52.4434 14.4886 52.0583 13.5753 52.0583 12.4589C52.0583 11.3426 52.4434 10.4292 53.2135 9.69348C53.9836 8.95771 54.9077 8.57715 55.9858 8.57715C56.5249 8.57715 57.0383 8.67863 57.526 8.8816C58.0137 9.08457 58.4245 9.36365 58.7068 9.71885L58.0394 10.3785C57.526 9.79496 56.8586 9.4905 55.9602 9.4905C55.1644 9.4905 54.4713 9.76959 53.9066 10.3278C53.3162 10.8859 53.0338 11.5963 53.0338 12.4843C53.0338 13.3723 53.3162 14.0827 53.9066 14.6408C54.497 15.199 55.1901 15.4781 55.9602 15.4781C56.8073 15.4781 57.5004 15.199 58.0651 14.6408C58.4245 14.2857 58.6555 13.7782 58.7068 13.1186H55.9602V12.2306H59.6053C59.6823 12.3828 59.6823 12.5604 59.6823 12.7634Z" fill="white" stroke="white" stroke-width="0.199309" stroke-miterlimit="10"/>
<path d="M65.4836 9.64283H62.0438V12.0023H65.1499V12.8903H62.0438V15.2498H65.4836V16.1632H61.0684V8.7041H65.4836C65.4836 8.72947 65.4836 9.64283 65.4836 9.64283Z" fill="white" stroke="white" stroke-width="0.199309" stroke-miterlimit="10"/>
<path d="M69.5909 16.1884H68.6154V9.64261H66.5105V8.72925H71.6958V9.64261H69.5909V16.1884Z" fill="white" stroke="white" stroke-width="0.199309" stroke-miterlimit="10"/>
<path d="M75.4434 16.1884V8.72925H76.4188V16.1884H75.4434Z" fill="white" stroke="white" stroke-width="0.199309" stroke-miterlimit="10"/>
<path d="M80.7313 16.1884H79.7558V9.64261H77.6509V8.72925H82.8362V9.64261H80.7313V16.1884Z" fill="white" stroke="white" stroke-width="0.199309" stroke-miterlimit="10"/>
<path d="M92.668 15.2244C91.9236 15.9855 90.9995 16.3661 89.8957 16.3661C88.7919 16.3661 87.8678 15.9855 87.1233 15.2244C86.3789 14.4632 86.0195 13.5499 86.0195 12.4589C86.0195 11.368 86.3789 10.4292 87.1233 9.69346C87.8678 8.93232 88.7919 8.55176 89.8957 8.55176C90.9995 8.55176 91.9236 8.93232 92.668 9.69346C93.4124 10.4546 93.7975 11.368 93.7975 12.4589C93.7718 13.5499 93.4124 14.4632 92.668 15.2244ZM87.8421 14.5901C88.4068 15.1482 89.0742 15.4273 89.8957 15.4273C90.6914 15.4273 91.3845 15.1482 91.9492 14.5901C92.514 14.0319 92.7964 13.3215 92.7964 12.4335C92.7964 11.5455 92.514 10.8352 91.9492 10.277C91.3845 9.71883 90.7171 9.43975 89.8957 9.43975C89.0742 9.43975 88.4068 9.71883 87.8421 10.277C87.2773 10.8352 86.995 11.5455 86.995 12.4335C86.995 13.3215 87.2773 14.0319 87.8421 14.5901Z" fill="white" stroke="white" stroke-width="0.199309" stroke-miterlimit="10"/>
<path d="M95.1323 16.1884V8.72925H96.3131L99.9839 14.5392H100.035L99.9839 13.0931V8.72925H100.959V16.1884H99.9582L96.1078 10.0993H96.0564L96.1078 11.5454V16.1884H95.1323Z" fill="white" stroke="white" stroke-width="0.199309" stroke-miterlimit="10"/>
<path d="M85.7626 27.0726C82.8106 27.0726 80.3976 29.3052 80.3976 32.3751C80.3976 35.4197 82.8106 37.6777 85.7626 37.6777C88.7146 37.6777 91.1533 35.4197 91.1533 32.3751C91.1533 29.3052 88.7403 27.0726 85.7626 27.0726ZM85.7626 35.5719C84.1454 35.5719 82.7336 34.2526 82.7336 32.3751C82.7336 30.4723 84.1197 29.1784 85.7626 29.1784C87.4055 29.1784 88.7916 30.4723 88.7916 32.3751C88.7916 34.2526 87.3798 35.5719 85.7626 35.5719ZM74.0572 27.0726C71.1052 27.0726 68.6922 29.3052 68.6922 32.3751C68.6922 35.4197 71.1052 37.6777 74.0572 37.6777C77.0092 37.6777 79.4222 35.4197 79.4222 32.3751C79.4222 29.3052 77.0092 27.0726 74.0572 27.0726ZM74.0572 35.5719C72.44 35.5719 71.0282 34.2526 71.0282 32.3751C71.0282 30.4723 72.44 29.1784 74.0572 29.1784C75.6744 29.1784 77.0862 30.4723 77.0862 32.3751C77.0606 34.2526 75.6744 35.5719 74.0572 35.5719ZM60.0928 28.6963V30.9544H65.5348C65.3808 32.2229 64.9444 33.1363 64.3027 33.7706C63.5069 34.5571 62.2748 35.4197 60.0928 35.4197C56.7557 35.4197 54.1374 32.7557 54.1374 29.4575C54.1374 26.1592 56.7557 23.4953 60.0928 23.4953C61.8897 23.4953 63.2245 24.2056 64.2 25.0936L65.7915 23.5206C64.431 22.2267 62.6341 21.2626 60.0928 21.2626C55.4979 21.2626 51.6475 24.9414 51.6475 29.4828C51.6475 34.0243 55.4979 37.7031 60.0928 37.7031C62.5828 37.7031 64.431 36.8912 65.8942 35.3943C67.383 33.9228 67.8708 31.817 67.8708 30.1425C67.8708 29.6097 67.8194 29.1276 67.7424 28.7471C67.7424 28.6963 60.0928 28.6963 60.0928 28.6963ZM117.131 30.4469C116.695 29.2545 115.334 27.0726 112.536 27.0726C109.79 27.0726 107.479 29.2291 107.479 32.3751C107.479 35.3436 109.738 37.6777 112.793 37.6777C115.257 37.6777 116.669 36.2062 117.259 35.3436L115.437 34.1511C114.821 35.0391 113.999 35.6227 112.793 35.6227C111.612 35.6227 110.739 35.0899 110.2 34.0243L117.362 31.1066C117.388 31.0305 117.131 30.4469 117.131 30.4469ZM109.841 32.1975C109.79 30.1679 111.432 29.1023 112.639 29.1023C113.563 29.1023 114.359 29.559 114.641 30.2186C114.615 30.244 109.841 32.1975 109.841 32.1975ZM104.014 37.3479H106.375V21.7954H104.014V37.3479ZM100.163 28.2397H100.086C99.5473 27.6308 98.5462 27.0726 97.2627 27.0726C94.593 27.0726 92.1287 29.4067 92.1287 32.3751C92.1287 35.3436 94.593 37.6523 97.2627 37.6523C98.5462 37.6523 99.5473 37.0942 100.086 36.4599H100.163V37.221C100.163 39.2507 99.0596 40.3417 97.314 40.3417C95.8765 40.3417 94.9781 39.3268 94.6187 38.4642L92.5651 39.3015C93.1555 40.6969 94.7214 42.4221 97.314 42.4221C100.086 42.4221 102.397 40.8237 102.397 36.9166V27.4024H100.163V28.2397ZM97.468 35.5719C95.8508 35.5719 94.4903 34.2272 94.4903 32.3751C94.4903 30.4977 95.8508 29.153 97.468 29.153C99.0596 29.153 100.317 30.5231 100.317 32.3751C100.317 34.2272 99.0596 35.5719 97.468 35.5719ZM128.169 21.77H122.547V37.3225H124.883V31.4364H128.169C130.787 31.4364 133.329 29.559 133.329 26.6159C133.329 23.6475 130.762 21.77 128.169 21.77ZM128.22 29.2799H124.883V23.9519H128.22C129.966 23.9519 130.967 25.3981 130.967 26.6159C130.967 27.8083 129.966 29.2799 128.22 29.2799ZM142.75 27.0472C141.055 27.0472 139.284 27.783 138.565 29.4321L140.645 30.2947C141.081 29.4321 141.928 29.153 142.801 29.153C144.007 29.153 145.265 29.8888 145.265 31.1573V31.3096C144.829 31.0558 143.93 30.7007 142.801 30.7007C140.568 30.7007 138.257 31.9185 138.257 34.2019C138.257 36.2823 140.106 37.627 142.159 37.627C143.751 37.627 144.623 36.9166 145.162 36.1047H145.24V37.2971H147.498V31.3349C147.524 28.5948 145.445 27.0472 142.75 27.0472ZM142.467 35.5719C141.697 35.5719 140.619 35.1913 140.619 34.2526C140.619 33.0602 141.954 32.5781 143.109 32.5781C144.136 32.5781 144.623 32.8065 145.265 33.1109C145.06 34.5571 143.828 35.5719 142.467 35.5719ZM155.79 27.377L153.094 34.1258H153.017L150.219 27.377H147.678L151.862 36.7897L149.475 42.0416H151.939L158.408 27.377H155.79ZM134.612 37.3479H136.974V21.7954H134.612V37.3479Z" fill="white"/>
<path d="M13.1173 9.38889C12.7579 9.76946 12.5269 10.3784 12.5269 11.1395V38.6672C12.5269 39.4283 12.7322 40.0372 13.1173 40.4178L13.2199 40.4939L28.8272 25.0683V24.7131L13.2199 9.28741L13.1173 9.38889Z" fill="url(#paint0_linear)"/>
<path d="M34.0125 30.2188L28.8271 25.0684V24.7132L34.0381 19.5629L34.1665 19.639L40.3272 23.1148C42.0728 24.1043 42.0728 25.7281 40.3272 26.7175L34.1665 30.168C34.1408 30.1426 34.0125 30.2188 34.0125 30.2188Z" fill="url(#paint1_linear)"/>
<path d="M34.1407 30.1425L28.8271 24.8906L13.1428 40.3924C13.7332 41.0013 14.683 41.0774 15.7611 40.4685L34.1407 30.1425Z" fill="url(#paint2_linear)"/>
<path d="M34.1407 19.639L15.7355 9.313C14.6574 8.70409 13.7076 8.7802 13.1172 9.38911L28.8014 24.8909L34.1407 19.639Z" fill="url(#paint3_linear)"/>
<defs>
<linearGradient id="paint0_linear" x1="27.4277" y1="38.9429" x2="1.57236" y2="12.4742" gradientUnits="userSpaceOnUse">
<stop stop-color="#00A0FF"/>
<stop offset="0.0066" stop-color="#00A1FF"/>
<stop offset="0.2601" stop-color="#00BEFF"/>
<stop offset="0.5122" stop-color="#00D2FF"/>
<stop offset="0.7604" stop-color="#00DFFF"/>
<stop offset="1" stop-color="#00E3FF"/>
</linearGradient>
<linearGradient id="paint1_linear" x1="42.5814" y1="24.8925" x2="4.40834" y2="24.8925" gradientUnits="userSpaceOnUse">
<stop stop-color="#FFE000"/>
<stop offset="0.4087" stop-color="#FFBD00"/>
<stop offset="0.7754" stop-color="#FFA500"/>
<stop offset="1" stop-color="#FF9C00"/>
</linearGradient>
<linearGradient id="paint2_linear" x1="20.7341" y1="32.4188" x2="-14.3279" y2="-3.47485" gradientUnits="userSpaceOnUse">
<stop stop-color="#FF3A44"/>
<stop offset="1" stop-color="#C31162"/>
</linearGradient>
<linearGradient id="paint3_linear" x1="-1.33422" y1="39.1797" x2="14.3225" y2="23.1518" gradientUnits="userSpaceOnUse">
<stop stop-color="#32A071"/>
<stop offset="0.0685" stop-color="#2DA771"/>
<stop offset="0.4762" stop-color="#15CF74"/>
<stop offset="0.8009" stop-color="#06E775"/>
<stop offset="1" stop-color="#00F076"/>
</linearGradient>
</defs>
</svg>
