<svg width="117" height="46" viewBox="0 0 117 46" fill="none" xmlns="http://www.w3.org/2000/svg">
<path d="M6.33754 46.0001C8.45005 46.0001 10.1633 45.2183 11.3942 44.2037V38.964H6.03815V41.326H8.33365V42.7399C7.85121 43.0559 7.25244 43.2223 6.47061 43.2223C4.62425 43.2223 3.31018 41.8749 3.31018 39.9953C3.31018 38.1822 4.60763 36.7683 6.28767 36.7683C7.43537 36.7683 8.26711 37.1675 9.0988 37.8661L10.9951 35.5873C9.76411 34.5227 8.31697 33.8906 6.271 33.8906C2.66143 33.8906 0 36.5521 0 39.9454C0 43.505 2.71135 46.0001 6.33754 46.0001Z" fill="white"/>
<path d="M21.2902 45.7672H24.6835L25.5152 43.688H30.0064L30.8547 45.7672H34.3146L29.3577 34.0403H26.2471L21.2902 45.7672ZM26.4633 41.1763L27.7774 37.8661L29.0749 41.1763H26.4633Z" fill="white"/>
<path d="M44.4766 45.7673H47.637V39.1137L50.5979 43.6382H50.6644L53.6419 39.0805V45.7673H56.8523V34.1235H53.4423L50.6644 38.6313L47.8865 34.1235H44.4766V45.7673Z" fill="white"/>
<path d="M67.9458 45.7673H77.3939V43.0227H71.1395V41.1764H76.7285V38.6313H71.1395V36.8681H77.3107V34.1235H67.9458V45.7673Z" fill="white"/>
<path d="M92.6459 45.9668C95.4737 45.9668 97.3533 44.5529 97.3533 42.1743C97.3533 39.962 95.6899 39.097 93.0119 38.5148C91.3983 38.1489 90.9991 37.916 90.9991 37.3837C90.9991 36.9346 91.3817 36.6019 92.1635 36.6019C93.1948 36.6019 94.3592 37.0011 95.4238 37.7496L97.0373 35.4708C95.7731 34.4561 94.2261 33.9238 92.2466 33.9238C89.4521 33.9238 87.7389 35.4874 87.7389 37.6499C87.7389 40.0784 89.6518 40.777 92.1303 41.3426C93.7105 41.7085 94.093 41.9747 94.093 42.457C94.093 42.9893 93.6273 43.2888 92.7623 43.2888C91.415 43.2888 90.1341 42.8064 88.9864 41.8915L87.1899 44.0373C88.6205 45.3181 90.5833 45.9668 92.6459 45.9668Z" fill="white"/>
<path d="M109.697 29.4703C113.818 29.4703 116.557 27.7403 116.557 24.8299C116.557 22.123 114.133 21.0648 110.23 20.3524C107.879 19.9046 107.297 19.6197 107.297 18.9684C107.297 18.4189 107.855 18.0119 108.994 18.0119C110.497 18.0119 112.194 18.5003 113.745 19.4161L116.097 16.6278C114.254 15.3864 112 14.7351 109.115 14.7351C105.043 14.7351 102.546 16.6482 102.546 19.294C102.546 22.2655 105.334 23.1203 108.946 23.8123C111.248 24.26 111.806 24.5857 111.806 25.1759C111.806 25.8272 111.127 26.1935 109.867 26.1935C107.903 26.1935 106.037 25.6033 104.364 24.4839L101.746 27.1093C103.831 28.6766 106.691 29.4703 109.697 29.4703Z" fill="white"/>
<path fill-rule="evenodd" clip-rule="evenodd" d="M101.746 0H116.516L101.746 14.7349V0Z" fill="white"/>
<path fill-rule="evenodd" clip-rule="evenodd" d="M0.0739746 29.4706L29.544 29.4701L14.8248 14.7198L29.5443 0.000244141H0.0739746V29.4706Z" fill="white"/>
<path fill-rule="evenodd" clip-rule="evenodd" d="M97.3256 29.4725L97.3252 0.00258539L82.5748 14.7217L67.8552 0.00219727V29.4725H97.3256Z" fill="white"/>
<path fill-rule="evenodd" clip-rule="evenodd" d="M41.3691 0.000244141H63.4351V14.8091H41.3691C37.2967 14.8091 33.9647 11.477 33.9647 7.40465C33.9647 3.33216 37.2967 0.000244141 41.3691 0.000244141Z" fill="white"/>
<path fill-rule="evenodd" clip-rule="evenodd" d="M56.0306 14.6606H33.9647V29.4695H56.0306C60.103 29.4695 63.4351 26.1375 63.4351 22.0651C63.4351 17.9926 60.103 14.6606 56.0306 14.6606Z" fill="white"/>
</svg>
