<svg width="117" height="46" viewBox="0 0 117 46" fill="none" xmlns="http://www.w3.org/2000/svg">
<path d="M6.33754 46.0001C8.45005 46.0001 10.1633 45.2183 11.3942 44.2037V38.964H6.03815V41.326H8.33365V42.7399C7.85121 43.0559 7.25244 43.2223 6.47061 43.2223C4.62425 43.2223 3.31018 41.8749 3.31018 39.9953C3.31018 38.1822 4.60763 36.7683 6.28767 36.7683C7.43537 36.7683 8.26711 37.1675 9.0988 37.8661L10.9951 35.5873C9.76411 34.5227 8.31697 33.8906 6.271 33.8906C2.66143 33.8906 0 36.5521 0 39.9454C0 43.505 2.71135 46.0001 6.33754 46.0001Z" fill="black"/>
<path d="M21.2902 45.7672H24.6835L25.5152 43.688H30.0064L30.8547 45.7672H34.3146L29.3577 34.0403H26.2471L21.2902 45.7672ZM26.4633 41.1762L27.7774 37.8661L29.0749 41.1762H26.4633Z" fill="black"/>
<path d="M44.4766 45.7672H47.637V39.1136L50.5979 43.6381H50.6644L53.6419 39.0803V45.7672H56.8523V34.1234H53.4423L50.6644 38.6312L47.8865 34.1234H44.4766V45.7672Z" fill="black"/>
<path d="M67.9458 45.7672H77.3939V43.0226H71.1396V41.1762H76.7286V38.6312H71.1396V36.868H77.3107V34.1234H67.9458V45.7672Z" fill="black"/>
<path d="M92.6459 45.9668C95.4737 45.9668 97.3533 44.5529 97.3533 42.1742C97.3533 39.9619 95.6899 39.0969 93.0119 38.5148C91.3983 38.1488 90.9991 37.9159 90.9991 37.3836C90.9991 36.9345 91.3817 36.6019 92.1635 36.6019C93.1948 36.6019 94.3592 37.001 95.4238 37.7496L97.0373 35.4707C95.7731 34.4561 94.2261 33.9238 92.2466 33.9238C89.4521 33.9238 87.7389 35.4874 87.7389 37.6498C87.7389 40.0784 89.6518 40.777 92.1303 41.3425C93.7105 41.7085 94.093 41.9746 94.093 42.457C94.093 42.9893 93.6273 43.2887 92.7623 43.2887C91.415 43.2887 90.1341 42.8063 88.9864 41.8914L87.1899 44.0373C88.6205 45.318 90.5833 45.9668 92.6459 45.9668Z" fill="black"/>
<path d="M109.697 29.4702C113.818 29.4702 116.557 27.7402 116.557 24.8298C116.557 22.1229 114.133 21.0647 110.23 20.3523C107.879 19.9045 107.297 19.6197 107.297 18.9684C107.297 18.4189 107.855 18.0118 108.994 18.0118C110.497 18.0118 112.194 18.5003 113.745 19.416L116.097 16.6278C114.254 15.3864 112 14.735 109.115 14.735C105.043 14.735 102.546 16.6482 102.546 19.294C102.546 22.2655 105.334 23.1202 108.946 23.8122C111.249 24.2599 111.806 24.5856 111.806 25.1758C111.806 25.8271 111.127 26.1934 109.867 26.1934C107.903 26.1934 106.037 25.6032 104.364 24.4838L101.746 27.1093C103.831 28.6765 106.691 29.4702 109.697 29.4702Z" fill="#FF3F40"/>
<path fill-rule="evenodd" clip-rule="evenodd" d="M101.746 0H116.516L101.746 14.7349V0Z" fill="#FF3F40"/>
<path fill-rule="evenodd" clip-rule="evenodd" d="M0.0740356 29.4705L29.544 29.4701L14.8248 14.7197L29.5444 0.000183105H0.0740356V29.4705Z" fill="#FF3F40"/>
<path fill-rule="evenodd" clip-rule="evenodd" d="M97.3256 29.4725L97.3251 0.00252436L82.5748 14.7217L67.8552 0.00213623V29.4725H97.3256Z" fill="#FCB537"/>
<path fill-rule="evenodd" clip-rule="evenodd" d="M41.3691 0.000183105H63.4351V14.809H41.3691C37.2967 14.809 33.9647 11.477 33.9647 7.40459C33.9647 3.3321 37.2967 0.000183105 41.3691 0.000183105Z" fill="#3B3BFF"/>
<path fill-rule="evenodd" clip-rule="evenodd" d="M56.0306 14.6608H33.9647V29.4696H56.0306C60.103 29.4696 63.4351 26.1376 63.4351 22.0652C63.4351 17.9927 60.103 14.6608 56.0306 14.6608Z" fill="#3B3BFF"/>
</svg>
