<svg width="24" height="23" viewBox="0 0 24 23" fill="none" xmlns="http://www.w3.org/2000/svg">
<path d="M23.8445 8.56387C23.6505 7.96703 23.1359 7.53466 22.5159 7.4441L16.2367 6.53143L13.4283 0.845803C12.8741 -0.278761 11.0344 -0.278761 10.4802 0.845803L7.67178 6.53143L1.40747 7.4441C0.787677 7.53441 0.273072 7.96855 0.0805994 8.56387C-0.113387 9.16072 0.0493194 9.81356 0.498338 10.2492L5.03973 14.664L3.9694 20.9121C3.86421 21.5286 4.11748 22.1535 4.62376 22.5218C5.1318 22.8886 5.80256 22.9362 6.35677 22.6451L11.9536 19.6937L17.5671 22.6451C17.8072 22.7718 18.0703 22.8343 18.3317 22.8343C18.672 22.8343 19.0123 22.7291 19.3019 22.522C19.8084 22.152 20.0614 21.5289 19.9562 20.9124L18.8859 14.6642L23.4273 10.2495C23.8758 9.81507 24.0385 9.1592 23.8445 8.56387Z" fill="#FCB537"/>
</svg>
