<svg width="267" height="79" viewBox="0 0 267 79" fill="none" xmlns="http://www.w3.org/2000/svg">
<path d="M265.236 69.5601C265.236 73.7345 261.855 77.1153 257.673 77.1153H10.1687C5.98871 77.1153 2.5957 73.7345 2.5957 69.5601V9.31C2.5957 5.1379 5.98871 1.74515 10.1687 1.74515H257.672C261.855 1.74515 265.234 5.1379 265.234 9.31L265.236 69.5601Z" fill="#FEFEFE"/>
<path d="M257.673 78.873H10.1686C5.02612 78.873 0.840088 74.6971 0.840088 69.5601V9.31194C0.840088 4.31757 4.7914 0.228513 9.73247 0H258.107C263.043 0.228513 267 4.31757 267 9.31194V69.5601C267.004 74.6971 262.812 78.873 257.673 78.873Z" fill="#B6B9BF"/>
<path d="M265.236 69.5601C265.236 73.7345 261.855 77.1153 257.673 77.1153H10.1687C5.98871 77.1153 2.5957 73.7345 2.5957 69.5601V9.31C2.5957 5.1379 5.98871 1.74515 10.1687 1.74515H257.672C261.855 1.74515 265.234 5.1379 265.234 9.31L265.236 69.5601Z" fill="white"/>
<path d="M60.2716 39.0156C60.2145 32.6579 65.4776 29.5648 65.7182 29.4207C62.7377 25.0752 58.1175 24.4813 56.4943 24.4339C52.6141 24.0254 48.8502 26.7558 46.8737 26.7558C44.8575 26.7558 41.8136 24.4733 38.5332 24.5403C34.3117 24.6055 30.3626 27.0498 28.1968 30.8451C23.7267 38.5838 27.0605 49.9559 31.343 56.2113C33.4852 59.2766 35.9885 62.6953 39.2652 62.575C42.4707 62.4449 43.6679 60.5332 47.5364 60.5332C51.369 60.5332 52.4935 62.575 55.8353 62.498C59.2756 62.4449 61.4415 59.4205 63.5088 56.3296C65.9845 52.8201 66.9787 49.3602 67.0182 49.1829C66.9393 49.1549 60.3387 46.634 60.2716 39.0156Z" fill="#2B2A29"/>
<path d="M53.9592 20.3194C55.6832 18.1633 56.8631 15.2302 56.5355 12.2534C54.04 12.3638 50.9193 13.9794 49.1224 16.0883C47.5326 17.9464 46.1121 20.9921 46.479 23.8562C49.2822 24.0654 52.1602 22.4422 53.9592 20.3194Z" fill="#2B2A29"/>
<path d="M99.0278 51.1893L96.8085 44.3343C96.574 43.6341 96.132 41.9851 95.4849 39.3889H95.4059C95.1457 40.5055 94.7294 42.1545 94.1593 44.3343L91.9776 51.1893H99.0278ZM106.701 62.1354H102.221L99.7677 54.4246H91.2379L88.9004 62.1354H84.5388L92.9916 35.8835H98.2111L106.701 62.1354Z" fill="#2B2A29"/>
<path d="M124.112 52.5917C124.112 50.7493 123.698 49.2303 122.865 48.0331C121.956 46.7885 120.735 46.1648 119.204 46.1648C118.166 46.1648 117.224 46.5121 116.381 47.1965C115.537 47.8871 114.985 48.7885 114.726 49.905C114.596 50.4257 114.531 50.8497 114.531 51.1853V54.3433C114.531 55.7182 114.953 56.8801 115.797 57.831C116.642 58.7781 117.738 59.2535 119.088 59.2535C120.672 59.2535 121.905 58.6397 122.786 57.4226C123.67 56.2017 124.112 54.592 124.112 52.5917ZM128.396 52.4377C128.396 55.6573 127.523 58.2018 125.773 60.0699C124.207 61.733 122.26 62.5636 119.938 62.5636C117.431 62.5636 115.627 61.6698 114.533 59.8788V69.8108H110.327V49.4277C110.327 47.4056 110.274 45.3326 110.171 43.2059H113.87L114.105 46.2065H114.184C115.586 43.9458 117.715 42.8152 120.571 42.8152C122.804 42.8152 124.668 43.6971 126.159 45.4625C127.649 47.2321 128.396 49.5559 128.396 52.4377Z" fill="#2B2A29"/>
<path d="M145.882 52.5917C145.882 50.7493 145.466 49.2303 144.633 48.0331C143.724 46.7885 142.507 46.1648 140.976 46.1648C139.938 46.1648 138.995 46.5121 138.149 47.1965C137.305 47.8871 136.754 48.7885 136.496 49.905C136.368 50.4257 136.299 50.8497 136.299 51.1853V54.3433C136.299 55.7182 136.723 56.8801 137.563 57.831C138.408 58.7758 139.504 59.2535 140.858 59.2535C142.444 59.2535 143.676 58.6397 144.556 57.4226C145.44 56.2017 145.882 54.592 145.882 52.5917ZM150.169 52.4377C150.169 55.6573 149.295 58.2018 147.545 60.0699C145.977 61.733 144.032 62.5636 141.708 62.5636C139.201 62.5636 137.398 61.6698 136.303 59.8788V69.8108H132.097V49.4277C132.097 47.4056 132.044 45.3326 131.941 43.2059H135.64L135.874 46.2065H135.953C137.354 43.9458 139.483 42.8152 142.341 42.8152C144.572 42.8152 146.436 43.6971 147.931 45.4625C149.419 47.2321 150.169 49.5559 150.169 52.4377Z" fill="#2B2A29"/>
<path d="M174.511 54.7715C174.511 57.0065 173.73 58.8234 172.178 60.226C170.469 61.7567 168.084 62.5241 165.027 62.5241C162.202 62.5241 159.937 61.9797 158.229 60.8886L159.201 57.3833C161.046 58.4762 163.072 59.0206 165.277 59.0206C166.863 59.0206 168.096 58.6616 168.976 57.9494C169.858 57.2354 170.303 56.2806 170.303 55.0892C170.303 54.0219 169.935 53.1284 169.211 52.4006C168.483 51.6745 167.28 50.9979 165.589 50.3766C160.993 48.6622 158.693 46.1551 158.693 42.8567C158.693 40.7028 159.505 38.9391 161.127 37.5603C162.748 36.1833 164.899 35.4949 167.573 35.4949C169.962 35.4949 171.953 35.9113 173.533 36.7415L172.477 40.17C170.99 39.3653 169.311 38.9627 167.433 38.9627C165.95 38.9627 164.786 39.3278 163.953 40.0538C163.253 40.7028 162.898 41.4936 162.898 42.4326C162.898 43.4684 163.302 44.3285 164.107 45.0032C164.806 45.6245 166.08 46.3011 167.922 47.027C170.183 47.9382 171.844 48.9997 172.907 50.2187C173.979 51.4379 174.511 52.9587 174.511 54.7715Z" fill="#2B2A29"/>
<path d="M188.451 46.3621H183.815V55.5527C183.815 57.8904 184.632 59.0561 186.27 59.0561C187.021 59.0561 187.645 58.9929 188.138 58.8608L188.254 62.0544C187.425 62.3643 186.335 62.5199 184.984 62.5199C183.322 62.5199 182.025 62.013 181.087 60.9989C180.155 59.9852 179.685 58.2865 179.685 55.8959V46.3543H176.923V43.1979H179.685V39.732L183.815 38.4854V43.1979H188.451V46.3621Z" fill="#2B2A29"/>
<path d="M204.967 52.6116C204.967 50.8777 204.592 49.3901 203.84 48.1454C202.958 46.6425 201.696 45.8908 200.061 45.8908C198.376 45.8908 197.084 46.6425 196.204 48.1454C195.451 49.3901 195.076 50.9033 195.076 52.6906C195.076 54.4264 195.451 55.9175 196.204 57.1583C197.113 58.6616 198.382 59.4133 200.025 59.4133C201.633 59.4133 202.893 58.6459 203.805 57.1208C204.578 55.8466 204.967 54.3494 204.967 52.6116ZM209.326 52.5148C209.326 55.4244 208.493 57.8135 206.833 59.6815C205.095 61.6046 202.783 62.5636 199.901 62.5636C197.119 62.5636 194.908 61.6422 193.259 59.8017C191.61 57.9575 190.785 55.6337 190.785 52.8305C190.785 49.8973 191.637 47.4944 193.336 45.6264C195.038 43.7562 197.33 42.8214 200.212 42.8214C202.99 42.8214 205.221 43.7447 206.91 45.5871C208.523 47.3742 209.326 49.6821 209.326 52.5148Z" fill="#2B2A29"/>
<path d="M223.002 46.9045C222.586 46.8278 222.14 46.7885 221.676 46.7885C220.197 46.7885 219.053 47.3446 218.248 48.4649C217.55 49.4514 217.198 50.698 217.198 52.2031V62.1353H212.993V49.1672C212.993 46.9876 212.951 44.999 212.87 43.2078H216.534L216.688 46.8297H216.804C217.25 45.585 217.948 44.5809 218.907 43.8293C219.844 43.1526 220.856 42.8152 221.947 42.8152C222.335 42.8152 222.686 42.8428 222.998 42.8922L223.002 46.9045Z" fill="#2B2A29"/>
<path d="M237.801 50.6841C237.83 49.4355 237.554 48.3602 236.984 47.4511C236.256 46.2791 235.136 45.6953 233.635 45.6953C232.26 45.6953 231.14 46.2653 230.287 47.4097C229.587 48.3188 229.171 49.4117 229.042 50.6803L237.801 50.6841ZM241.811 51.7747C241.811 52.5284 241.762 53.1635 241.657 53.6826H229.04C229.088 55.5526 229.699 56.9847 230.871 57.971C231.934 58.8508 233.309 59.2929 234.998 59.2929C236.866 59.2929 238.57 58.9967 240.103 58.3991L240.762 61.3164C238.971 62.0979 236.856 62.4864 234.416 62.4864C231.48 62.4864 229.177 61.6226 227.5 59.8981C225.827 58.1722 224.989 55.8525 224.989 52.9467C224.989 50.0941 225.768 47.7173 227.328 45.8216C228.962 43.7978 231.169 42.7856 233.946 42.7856C236.675 42.7856 238.74 43.7978 240.143 45.8216C241.253 47.4254 241.811 49.4136 241.811 51.7747Z" fill="#2B2A29"/>
<path d="M93.2287 21.1086L92.1377 17.7391C92.0235 17.3939 91.8125 16.5914 91.4867 15.3091H91.4474C91.3132 15.8635 91.1216 16.668 90.834 17.7391L89.7628 21.1086H93.2287ZM97.0004 26.4881H94.7968L93.5916 22.6985H89.3996L88.2496 26.4881H86.1052L90.2597 13.5848H92.8241L97.0004 26.4881Z" fill="#2B2A29"/>
<path d="M107.388 17.1846L103.865 26.4879H101.855L98.446 17.1846H100.667L102.257 22.1044C102.525 22.927 102.754 23.7123 102.926 24.4579H102.983C103.137 23.789 103.366 23.004 103.652 22.1044L105.222 17.1846H107.388Z" fill="#2B2A29"/>
<path d="M114.6 21.8541C112.302 21.8541 111.154 22.4104 111.154 23.7304C111.154 24.7068 111.747 25.1841 112.57 25.1841C113.623 25.1841 114.6 24.3811 114.6 23.2904V21.8541ZM114.888 26.4882L114.734 25.417H114.677C114.046 26.2791 113.126 26.699 111.958 26.699C110.293 26.699 109.106 25.5312 109.106 23.9613C109.106 21.665 111.096 20.4774 114.542 20.4774V20.3057C114.542 19.0808 113.892 18.4672 112.609 18.4672C111.69 18.4672 110.885 18.6981 110.179 19.1578L109.759 17.7986C110.621 17.262 111.692 16.9937 112.957 16.9937C115.387 16.9937 116.614 18.2759 116.614 20.8425V24.2689C116.614 25.2079 116.653 25.9357 116.748 26.4901L114.888 26.4882Z" fill="#2B2A29"/>
<path d="M122.291 26.4878H120.224V17.1845H122.291V26.4878ZM121.218 15.652C120.53 15.652 119.993 15.1153 119.993 14.4072C119.993 13.699 120.548 13.1823 121.258 13.1823C121.966 13.1823 122.54 13.699 122.52 14.4072C122.52 15.1548 121.986 15.652 121.218 15.652Z" fill="#2B2A29"/>
<path d="M125.965 26.4882H128.032V12.9164H125.965V26.4882Z" fill="#2B2A29"/>
<path d="M136.53 21.8538C134.231 21.8538 133.084 22.4101 133.084 23.7301C133.084 24.7065 133.677 25.1838 134.5 25.1838C135.553 25.1838 136.53 24.3808 136.53 23.2901V21.8538ZM136.818 26.4879L136.664 25.4167H136.607C135.975 26.2788 135.056 26.6987 133.888 26.6987C132.224 26.6987 131.036 25.5309 131.036 23.961C131.036 21.6647 133.026 20.4771 136.473 20.4771V20.3054C136.473 19.0806 135.821 18.4669 134.539 18.4669C133.62 18.4669 132.815 18.6978 132.109 19.1575L131.687 17.7964C132.549 17.2597 133.62 16.9915 134.885 16.9915C137.315 16.9915 138.542 18.2737 138.542 20.8402V24.2667C138.542 25.2056 138.583 25.9332 138.674 26.4879H136.818Z" fill="#2B2A29"/>
<path d="M146.497 18.6194C145.308 18.6194 144.219 19.6531 144.219 21.0889V22.7166C144.219 23.9986 145.198 25.052 146.462 25.052C148.011 25.052 148.932 23.7895 148.932 21.7793C148.93 19.9036 147.971 18.6194 146.497 18.6194ZM146.918 26.6991C145.598 26.6991 144.624 26.1427 143.992 25.052H143.951L143.833 26.4883H142.071C142.128 25.7425 142.148 24.8981 142.148 23.9809V12.9164H144.217V18.5462H144.257C144.87 17.5125 145.862 16.9957 147.224 16.9957C149.464 16.9957 151.035 18.9113 151.035 21.7045C151.035 24.5924 149.291 26.6991 146.918 26.6991Z" fill="#2B2A29"/>
<path d="M154.092 26.4882H156.158V12.9164H154.092V26.4882Z" fill="#2B2A29"/>
<path d="M165.516 20.86C165.516 19.424 164.788 18.41 163.466 18.41C162.279 18.41 161.344 19.4436 161.206 20.86H165.516ZM167.412 22.3337H161.206C161.247 24.0952 162.411 25.0894 164.135 25.0894C165.054 25.0894 165.896 24.9354 166.642 24.6496L166.964 26.0855C166.084 26.4682 165.05 26.6594 163.845 26.6594C160.933 26.6594 159.211 24.8209 159.211 21.9706C159.211 19.1183 160.975 16.9741 163.612 16.9741C165.985 16.9741 167.481 18.7356 167.481 21.3966C167.489 21.7595 167.471 22.0851 167.412 22.3337Z" fill="#2B2A29"/>
<path d="M180.021 18.5047C178.528 18.5047 177.571 19.9015 177.571 21.8541C177.571 23.7697 178.547 25.1665 180.001 25.1665C181.455 25.1665 182.429 23.6731 182.429 21.8148C182.431 19.9211 181.474 18.5047 180.021 18.5047ZM179.942 26.699C177.223 26.699 175.462 24.6692 175.462 21.9135C175.462 19.0415 177.261 16.9937 180.098 16.9937C182.775 16.9937 184.577 18.9269 184.577 21.7615C184.577 24.6692 182.719 26.699 179.942 26.699Z" fill="#2B2A29"/>
<path d="M195.691 26.4879H193.626V21.1459C193.626 19.5005 192.995 18.6761 191.75 18.6761C190.525 18.6761 189.681 19.7295 189.681 20.9547V26.4879H187.615V19.8438C187.615 19.0213 187.594 18.1397 187.538 17.1827H189.357L189.454 18.619H189.511C190.063 17.6248 191.196 16.9915 192.458 16.9915C194.409 16.9915 195.691 18.4848 195.691 20.9149V26.4879Z" fill="#2B2A29"/>
<path d="M209.218 18.7353H206.943V23.2525C206.943 24.4025 207.344 24.9765 208.146 24.9765C208.512 24.9765 208.819 24.937 209.066 24.8799L209.123 26.4501C208.72 26.6038 208.182 26.6809 207.517 26.6809C205.888 26.6809 204.915 25.7813 204.915 23.426V18.7353H203.558V17.1844H204.915V15.4804L206.943 14.8666V17.1825H209.218V18.7353Z" fill="#2B2A29"/>
<path d="M220.165 26.4883H218.096V21.1858C218.096 19.5208 217.465 18.6784 216.22 18.6784C215.149 18.6784 214.155 19.4063 214.155 20.8801V26.4883H212.086V12.9164H214.155V18.5048H214.194C214.845 17.4907 215.784 16.9919 216.99 16.9919C218.96 16.9919 220.165 18.5225 220.165 20.9551V26.4883Z" fill="#2B2A29"/>
<path d="M228.833 20.86C228.833 19.424 228.108 18.41 226.786 18.41C225.596 18.41 224.661 19.4436 224.525 20.86H228.833ZM230.729 22.3337H224.525C224.565 24.0952 225.728 25.0894 227.453 25.0894C228.374 25.0894 229.214 24.9354 229.96 24.6496L230.283 26.0855C229.403 26.4682 228.368 26.6594 227.162 26.6594C224.251 26.6594 222.529 24.8209 222.529 21.9706C222.529 19.1183 224.292 16.9741 226.93 16.9741C229.303 16.9741 230.798 18.7356 230.798 21.3966C230.806 21.7595 230.786 22.0851 230.729 22.3337Z" fill="#2B2A29"/>
</svg>
