<svg width="266" height="79" viewBox="0 0 266 79" fill="none" xmlns="http://www.w3.org/2000/svg">
<path d="M255.722 78.3207H9.83543C4.42834 78.3207 0 73.944 0 68.5996V10.2734C0 4.92932 4.42834 0.552246 9.83543 0.552246H255.722C261.13 0.552246 265.558 4.92932 265.558 10.2734V68.5996C265.558 73.944 261.13 78.3207 255.722 78.3207Z" fill="white"/>
<path d="M255.722 0.552246H9.83543C4.42834 0.552246 0 4.92932 0 10.2734V68.5996C0 73.944 4.42834 78.3207 9.83543 78.3207H255.722C261.13 78.3207 265.558 73.944 265.558 68.5996V10.2734C265.558 4.92932 261.13 0.552246 255.722 0.552246ZM255.722 2.11006C260.277 2.11006 263.982 5.77235 263.982 10.2734V68.5996C263.982 73.1005 260.277 76.7629 255.722 76.7629H9.83543C5.28175 76.7629 1.57604 73.1005 1.57604 68.5996V10.2734C1.57604 5.77235 5.28175 2.11006 9.83543 2.11006H255.722Z" fill="#B6B9BF"/>
<path d="M93.2749 20.4684C93.2749 22.0918 92.783 23.392 91.8144 24.3615C90.7006 25.5111 89.2496 26.0896 87.4721 26.0896C85.773 26.0896 84.3221 25.5012 83.1321 24.3422C81.9395 23.166 81.3445 21.7224 81.3445 19.9943C81.3445 18.2666 81.9395 16.8229 83.1321 15.6563C84.3221 14.4874 85.773 13.8991 87.4721 13.8991C88.318 13.8991 89.1242 14.0719 89.894 14.3927C90.6612 14.7159 91.2856 15.1532 91.738 15.6928L90.7102 16.7182C89.9209 15.7971 88.8464 15.3429 87.4721 15.3429C86.2326 15.3429 85.1582 15.7706 84.2459 16.6332C83.3436 17.4983 82.891 18.6189 82.891 19.9943C82.891 21.37 83.3436 22.4999 84.2459 23.365C85.1582 24.218 86.2326 24.6556 87.4721 24.6556C88.7876 24.6556 89.894 24.218 90.7668 23.3554C91.3423 22.7844 91.6692 21.9967 91.7553 20.9907H87.4721V19.5861H93.1863C93.2551 19.8899 93.2749 20.1838 93.2749 20.4684Z" fill="#2B2A29"/>
<path d="M93.2747 20.4684H93.2491C93.2489 22.0866 92.7594 23.3788 91.796 24.3435C90.6866 25.4881 89.244 26.0636 87.4719 26.0638C85.7786 26.0636 84.3357 25.4784 83.1497 24.3236C81.962 23.1519 81.3703 21.7163 81.3699 19.9942C81.3703 18.2722 81.962 16.8367 83.1497 15.6745C84.3357 14.5101 85.7786 13.9249 87.4719 13.9247C88.3143 13.9249 89.117 14.0965 89.8838 14.4164C90.6479 14.7379 91.2689 15.1733 91.7183 15.7091L91.7378 15.6928L91.7198 15.6745L90.6921 16.7L90.71 16.7182L90.7295 16.7016C89.9354 15.7747 88.8517 15.3166 87.4719 15.3173C86.2268 15.317 85.1445 15.7478 84.2281 16.6145C83.3204 17.4845 82.865 18.6132 82.8653 19.9942C82.865 21.3755 83.3204 22.5136 84.2281 23.3836C85.1445 24.2407 86.2264 24.6815 87.4719 24.6811C88.7928 24.6815 89.9073 24.241 90.7846 23.3736C91.3652 22.7974 91.6942 22.003 91.7807 20.9929L91.7828 20.965H87.4974V19.6114H93.1861V19.5861L93.1611 19.5915C93.2296 19.8931 93.2491 20.185 93.2491 20.4684H93.3004C93.3004 20.1828 93.2805 19.8868 93.211 19.5804L93.2066 19.5605H87.4463V21.0163H91.7551V20.9907L91.7294 20.9884C91.6437 21.9906 91.3187 22.771 90.7488 23.3371C89.8803 24.195 88.7815 24.6296 87.4719 24.63C86.2385 24.6296 85.1714 24.1952 84.2633 23.3465C83.3662 22.4861 82.9168 21.3642 82.9164 19.9942C82.9168 18.6243 83.3662 17.5124 84.2633 16.6517C85.1714 15.7933 86.2385 15.3685 87.4719 15.3685C88.8408 15.3688 89.906 15.8199 90.6908 16.7349L90.7088 16.7561L91.7727 15.6944L91.7577 15.6764C91.3021 15.1329 90.6738 14.6935 89.9037 14.3689C89.1311 14.047 88.3214 13.8734 87.4719 13.8734C85.7667 13.8734 84.3081 14.4646 83.1139 15.6381C81.9165 16.8089 81.3184 18.2603 81.3186 19.9942C81.3184 21.7282 81.9165 23.1798 83.1139 24.3602C84.3085 25.5239 85.7667 26.1151 87.4719 26.1151C89.2549 26.1151 90.7138 25.5338 91.8325 24.3793C92.8065 23.4047 93.3004 22.0966 93.3004 20.4684H93.2747Z" fill="#2B2A29"/>
<path d="M102.341 15.5984H96.9731V19.2923H101.812V20.6968H96.9731V24.3909H102.341V25.8226H95.4534V14.1669H102.341V15.5984Z" fill="#2B2A29"/>
<path d="M102.341 15.598V15.5723H96.9474V19.3175H101.786V20.6708H96.9474V24.416H102.315V25.7966H95.4789V14.1921H102.315V15.598H102.341V15.5723V15.598H102.366V14.1409H95.4277V25.8475H102.366V24.3648H96.9987V20.722H101.838V19.2663H96.9987V15.6235H102.366V15.598H102.341Z" fill="#2B2A29"/>
<path d="M108.739 25.8226H107.219V15.5984H103.927V14.1669H112.034V15.5984H108.739V25.8226Z" fill="#2B2A29"/>
<path d="M108.739 25.8222V25.7966H107.245V15.5723H103.952V14.1921H112.008V15.5723H108.713V25.8222H108.739V25.7966V25.8222H108.764V15.6235H112.059V14.1409H103.901V15.6235H107.193V25.8475H108.764V25.8222H108.739Z" fill="#2B2A29"/>
<path d="M117.9 25.8224H119.417V14.1669H117.9V25.8224Z" fill="#2B2A29"/>
<path d="M117.9 25.8222H117.926V14.1921H119.392V25.7966H117.9V25.8222H117.926H117.9V25.8475H119.443V14.1409H117.875V25.8475H117.9V25.8222Z" fill="#2B2A29"/>
<path d="M126.143 25.8226H124.635V15.5984H121.331V14.1669H129.447V15.5984H126.143V25.8226Z" fill="#2B2A29"/>
<path d="M126.143 25.8222V25.7966H124.661V15.5723H121.356V14.1921H129.422V15.5723H126.117V25.8222H126.143V25.7966V25.8222H126.168V15.6235H129.473V14.1409H121.305V15.6235H124.61V25.8475H126.168V25.8222H126.143Z" fill="#2B2A29"/>
<path d="M137.264 23.3455C138.139 24.218 139.204 24.6556 140.473 24.6556C141.732 24.6556 142.807 24.218 143.672 23.3455C144.545 22.4733 144.988 21.3527 144.988 19.9943C144.988 18.6358 144.545 17.5153 143.672 16.643C142.807 15.7706 141.732 15.333 140.473 15.333C139.204 15.333 138.139 15.7706 137.264 16.643C136.391 17.5153 135.949 18.6358 135.949 19.9943C135.949 21.3527 136.391 22.4733 137.264 23.3455ZM144.795 24.3227C143.633 25.5012 142.192 26.0896 140.473 26.0896C138.744 26.0896 137.303 25.5012 136.14 24.3227C134.98 23.1465 134.402 21.7029 134.402 19.9943C134.402 18.2857 134.98 16.8422 136.14 15.6659C137.303 14.4874 138.744 13.8991 140.473 13.8991C142.182 13.8991 143.623 14.4874 144.786 15.6758C145.956 16.8617 146.534 18.2957 146.534 19.9943C146.534 21.7029 145.956 23.1465 144.795 24.3227Z" fill="#2B2A29"/>
<path d="M137.264 23.3455L137.246 23.3637C138.126 24.2407 139.198 24.6815 140.473 24.6811C141.738 24.6815 142.82 24.2407 143.69 23.3637C144.568 22.4868 145.013 21.3585 145.013 19.9942C145.013 18.6304 144.568 17.5017 143.69 16.6248C142.82 15.7478 141.738 15.307 140.473 15.3074C139.198 15.307 138.126 15.7478 137.246 16.6248C136.368 17.5017 135.923 18.6304 135.923 19.9942C135.923 21.3585 136.368 22.4868 137.246 23.3637L137.264 23.3455L137.282 23.3275C136.414 22.4599 135.975 21.3472 135.974 19.9942C135.975 18.6413 136.414 17.529 137.282 16.661C138.153 15.7933 139.21 15.3589 140.473 15.3585C141.726 15.3589 142.793 15.7933 143.654 16.661C144.522 17.529 144.962 18.6413 144.962 19.9942C144.962 21.3472 144.522 22.4599 143.654 23.3275C142.793 24.1952 141.726 24.6296 140.473 24.63C139.21 24.6296 138.153 24.1952 137.282 23.3275L137.264 23.3455ZM144.796 24.3227L144.777 24.3047C143.619 25.4784 142.186 26.0636 140.473 26.0638C138.75 26.0636 137.317 25.4784 136.159 24.3047C135.003 23.1327 134.428 21.6971 134.428 19.9942C134.428 18.2915 135.003 16.8558 136.159 15.6841C137.317 14.5101 138.75 13.9249 140.473 13.9247C142.176 13.9249 143.609 14.5101 144.768 15.6938C145.934 16.8754 146.508 18.3014 146.509 19.9942C146.508 21.6971 145.934 23.1327 144.777 24.3047L144.796 24.3227L144.814 24.3405C145.979 23.1601 146.56 21.7087 146.56 19.9942C146.56 18.2898 145.979 16.8478 144.804 15.6579C143.637 14.4646 142.188 13.8734 140.473 13.8734C138.739 13.8734 137.29 14.4646 136.122 15.6479C134.957 16.8286 134.376 18.28 134.376 19.9942C134.376 21.7087 134.957 23.1601 136.122 24.3405C137.29 25.5239 138.739 26.1153 140.473 26.1151C142.198 26.1153 143.646 25.5239 144.814 24.3405L144.796 24.3227Z" fill="#2B2A29"/>
<path d="M148.666 25.8226V14.1669H150.51L156.244 23.2318H156.31L156.244 20.991V14.1669H157.761V25.8222H156.178L150.173 16.3102H150.107L150.173 18.5607V25.8222L148.666 25.8226Z" fill="#2B2A29"/>
<path d="M148.666 25.8222H148.691V14.1921H150.496L156.23 23.257H156.337L156.27 20.9902V14.1921H157.735V25.7966L156.192 25.7962L150.187 16.2841H150.08L150.147 18.5612L150.173 18.5603H150.147V25.7962L148.666 25.7966V25.8222H148.691H148.666V25.8475H150.199V18.5599L150.133 16.3354H150.159L156.164 25.8475H157.787V14.1409H156.218V20.9906L156.284 23.2059H156.258L150.524 14.1409H148.64V25.8475H148.666V25.8222Z" fill="#2B2A29"/>
<path d="M210.349 58.8787H214.027V34.5762H210.349V58.8787ZM243.419 43.33L239.202 53.865H239.076L234.717 43.33H230.76L237.311 58.0525L233.573 66.2449H237.406L247.5 43.33H243.419ZM222.594 56.1154C221.394 56.1154 219.722 55.5275 219.722 54.057C219.722 52.176 221.808 51.4542 223.612 51.4542C225.228 51.4542 225.985 51.8065 226.966 52.2706C226.679 54.5211 224.719 56.1154 222.594 56.1154ZM223.037 42.7977C220.386 42.7977 217.63 43.9545 216.496 46.5182L219.752 47.867C220.453 46.5182 221.741 46.0811 223.103 46.0811C225.006 46.0811 226.937 47.2109 226.966 49.2062V49.4613C226.303 49.0824 224.881 48.5209 223.133 48.5209C219.627 48.5209 216.054 50.4287 216.054 53.9888C216.054 57.2456 218.926 59.3428 222.154 59.3428C224.623 59.3428 225.985 58.242 226.841 56.9612H226.966V58.84H230.51V49.5173C230.51 45.2084 227.254 42.7977 223.037 42.7977ZM200.359 46.29H195.134V37.9565H200.359C203.098 37.9565 204.662 40.2045 204.662 42.1219C204.662 44.0031 203.098 46.29 200.359 46.29ZM200.263 34.5762H191.465V58.8787H195.134V49.6703H200.263C204.337 49.6703 208.333 46.7565 208.333 42.1219C208.333 37.4898 204.327 34.5762 200.263 34.5762ZM152.305 56.125C149.77 56.125 147.648 54.0279 147.648 51.1408C147.648 48.2267 149.77 46.1002 152.305 46.1002C154.803 46.1002 156.773 48.2267 156.773 51.1408C156.773 54.0279 154.803 56.125 152.305 56.125ZM156.512 44.6858H156.389C155.563 43.7189 153.987 42.8438 151.99 42.8438C147.8 42.8438 143.969 46.4795 143.969 51.1408C143.969 55.7752 147.8 59.3818 151.99 59.3818C153.987 59.3818 155.563 58.4998 156.389 57.5033H156.512V58.6892C156.512 61.8509 154.803 63.5496 152.047 63.5496C149.8 63.5496 148.405 61.9456 147.83 60.5969L144.631 61.9163C145.553 64.1087 147.995 66.8063 152.047 66.8063C156.36 66.8063 159.999 64.2981 159.999 58.196V43.3469H156.512V44.6858ZM162.536 58.8787H166.215V34.5762H162.536V58.8787ZM171.632 50.8563C171.536 47.668 174.137 46.0346 176.001 46.0346C177.462 46.0346 178.701 46.7565 179.114 47.7893L171.632 50.8563ZM183.041 48.103C182.35 46.2535 180.218 42.8438 175.876 42.8438C171.573 42.8438 167.99 46.1953 167.99 51.1138C167.99 55.7461 171.536 59.3818 176.289 59.3818C180.132 59.3818 182.35 57.0658 183.262 55.717L180.41 53.8383C179.458 55.2136 178.162 56.125 176.289 56.125C174.428 56.125 173.092 55.2819 172.237 53.6195L183.427 49.0434L183.041 48.103ZM93.9168 45.3785V48.8926H102.407C102.159 50.8563 101.495 52.3002 100.477 53.306C99.2376 54.5211 97.3072 55.8699 93.9168 55.8699C88.6915 55.8699 84.5999 51.7023 84.5999 46.5377C84.5999 41.3733 88.6915 37.2057 93.9168 37.2057C96.7421 37.2057 98.7976 38.2967 100.315 39.7111L102.82 37.2348C100.698 35.2324 97.8754 33.6937 93.9168 33.6937C86.7516 33.6937 80.73 39.4561 80.73 46.5377C80.73 53.6195 86.7516 59.3818 93.9168 59.3818C97.7893 59.3818 100.698 58.1277 102.985 55.7752C105.328 53.4592 106.058 50.2027 106.058 47.5732C106.058 46.7565 105.99 46.0055 105.867 45.3785H93.9168ZM115.712 56.125C113.175 56.125 110.986 54.057 110.986 51.1138C110.986 48.132 113.175 46.1002 115.712 46.1002C118.247 46.1002 120.428 48.132 120.428 51.1138C120.428 54.057 118.247 56.125 115.712 56.125ZM115.712 42.8438C111.082 42.8438 107.317 46.3192 107.317 51.1138C107.317 55.8699 111.082 59.3818 115.712 59.3818C120.34 59.3818 124.107 55.8699 124.107 51.1138C124.107 46.3192 120.34 42.8438 115.712 42.8438ZM134.028 56.125C131.493 56.125 129.312 54.057 129.312 51.1138C129.312 48.132 131.493 46.1002 134.028 46.1002C136.563 46.1002 138.754 48.132 138.754 51.1138C138.754 54.057 136.563 56.125 134.028 56.125ZM134.028 42.8438C129.408 42.8438 125.634 46.3192 125.634 51.1138C125.634 55.8699 129.408 59.3818 134.028 59.3818C138.658 59.3818 142.433 55.8699 142.433 51.1138C142.433 46.3192 138.658 42.8438 134.028 42.8438Z" fill="#2B2A29"/>
<path fill-rule="evenodd" clip-rule="evenodd" d="M20.5267 15.2093C19.9489 15.8072 19.6145 16.738 19.6145 17.9433V60.9396C19.6145 62.1449 19.9489 63.0758 20.5267 63.6738L20.6693 63.8048L45.0464 39.7207V39.1522L20.6693 15.0685L20.5267 15.2093Z" fill="url(#paint0_linear)"/>
<path fill-rule="evenodd" clip-rule="evenodd" d="M53.1633 47.7526L45.0465 39.7206V39.1522L53.1732 31.1202L53.355 31.2246L62.979 36.6368C65.7256 38.1728 65.7256 40.7001 62.979 42.2458L53.355 47.6483L53.1633 47.7526Z" fill="url(#paint1_linear)"/>
<path fill-rule="evenodd" clip-rule="evenodd" d="M53.3549 47.6484L45.0464 39.4365L20.5266 63.6738C21.4389 64.6214 22.9266 64.7357 24.6182 63.7876L53.3549 47.6484Z" fill="url(#paint2_linear)"/>
<path fill-rule="evenodd" clip-rule="evenodd" d="M53.3549 31.2245L24.6182 15.0853C22.9266 14.147 21.4389 14.2614 20.5266 15.2091L45.0464 39.4363L53.3549 31.2245Z" fill="url(#paint3_linear)"/>
<defs>
<linearGradient id="paint0_linear" x1="42.8804" y1="61.389" x2="9.8677" y2="28.7603" gradientUnits="userSpaceOnUse">
<stop stop-color="#009EE0"/>
<stop offset="0.0117647" stop-color="#009EE0"/>
<stop offset="0.258824" stop-color="#00A8E7"/>
<stop offset="0.509804" stop-color="#00A9E8"/>
<stop offset="0.760784" stop-color="#00ACE9"/>
<stop offset="1" stop-color="#00ADE9"/>
</linearGradient>
<linearGradient id="paint1_linear" x1="65.8413" y1="39.4365" x2="19.8242" y2="39.4365" gradientUnits="userSpaceOnUse">
<stop stop-color="#FADA16"/>
<stop offset="0.411765" stop-color="#F7C111"/>
<stop offset="0.780392" stop-color="#F5B019"/>
<stop offset="1" stop-color="#F2AA21"/>
</linearGradient>
<linearGradient id="paint2_linear" x1="32.4225" y1="51.0602" x2="-12.3453" y2="7.32349" gradientUnits="userSpaceOnUse">
<stop stop-color="#E95A5E"/>
<stop offset="1" stop-color="#C73973"/>
</linearGradient>
<linearGradient id="paint3_linear" x1="-2.05566" y1="61.5028" x2="17.9351" y2="41.9713" gradientUnits="userSpaceOnUse">
<stop stop-color="#00A389"/>
<stop offset="0.0705882" stop-color="#00A687"/>
<stop offset="0.478431" stop-color="#00A073"/>
<stop offset="0.8" stop-color="#00A168"/>
<stop offset="1" stop-color="#009E64"/>
</linearGradient>
</defs>
</svg>
