<svg width="25" height="23" viewBox="0 0 25 23" fill="none" xmlns="http://www.w3.org/2000/svg">
<path d="M24.2474 8.56124C24.0534 7.9644 23.5388 7.53203 22.9187 7.44147L16.6395 6.5288L13.8311 0.843423C13.2769 -0.281141 11.4372 -0.281141 10.883 0.843423L8.07462 6.52905L1.81006 7.44172C1.19027 7.53203 0.675659 7.96617 0.483187 8.56149C0.289201 9.15833 0.451909 9.81118 0.900927 10.2468L5.44232 14.6616L4.37198 20.9097C4.26679 21.5263 4.52007 22.1511 5.02635 22.5194C5.53439 22.8862 6.20691 22.9339 6.75935 22.6428L12.3564 19.6913L17.9699 22.6428C18.2101 22.7694 18.4732 22.8319 18.7345 22.8319C19.0748 22.8319 19.4151 22.7268 19.7047 22.5197C20.2112 22.1496 20.4642 21.5265 20.3591 20.91L19.2887 14.6618L23.8301 10.2471C24.2786 9.8142 24.4413 9.15657 24.2474 8.56124Z" fill="#E3E0D9"/>
</svg>
